<svg width="383" height="249" viewBox="0 0 383 249" fill="none" xmlns="http://www.w3.org/2000/svg">
<path d="M25.6719 62.6328H355.937C369.367 62.6328 380.492 74.9637 380.492 90.4385V219.365C380.492 234.84 369.367 247.171 355.937 247.171H25.6719C12.2418 247.171 1.11636 234.84 1.11621 219.365V90.4385C1.11632 74.9638 12.2418 62.6329 25.6719 62.6328Z" stroke="#FFF212" stroke-width="2.23888" stroke-miterlimit="22.93"/>
<path fill-rule="evenodd" clip-rule="evenodd" d="M22.5199 0.918945H359.631C372.018 0.918945 382.154 13.1777 382.154 28.1605V94.8678C382.154 109.851 372.019 122.109 359.631 122.109H22.5199C10.1328 122.109 -0.00292969 109.851 -0.00292969 94.8678V28.1605C-0.00292969 13.1777 10.1321 0.918945 22.5199 0.918945Z" fill="#FFF212"/>
<path d="M66.5302 58.3776V38.9516H72.4996C76.4326 38.9516 79.4672 39.89 81.5839 41.7269C83.7201 43.5833 84.778 45.8996 84.778 48.6748C84.778 51.7897 83.6595 54.1853 81.4038 55.8626C79.1677 57.5399 76.1732 58.3785 72.439 58.3785H66.5293L66.5302 58.3776ZM44.4092 104.059H66.5312V78.0844H76.1145C82.7033 78.0844 88.4134 77.0265 93.2046 74.9294C97.9967 72.8333 101.75 69.5785 104.425 65.1866C107.12 60.7937 108.458 55.4633 108.458 49.1944C108.458 45.6402 108.078 42.3659 107.32 39.3313C106.561 36.3162 105.364 33.541 103.726 31.026C102.089 28.51 100.072 26.3542 97.6366 24.5771C95.2205 22.7804 92.3062 21.3829 88.8919 20.4239C85.4982 19.4454 81.7042 18.9463 77.5315 18.9463H44.4092V104.059Z" fill="#0F2053"/>
<path d="M158.471 105.299C165.659 105.299 172.247 103.781 178.257 100.786C184.247 97.7918 189.218 93.8579 193.171 89.0266L176.499 74.6912C174.383 77.2669 171.688 79.363 168.394 80.9601C165.1 82.5572 161.785 83.3557 158.471 83.3557C155.356 83.3557 152.501 82.7764 149.905 81.5991C147.31 80.4209 145.153 78.8434 143.437 76.8676C141.719 74.8713 140.402 72.5746 139.464 69.9597C138.525 67.344 138.066 64.5892 138.066 61.7141C138.066 58.8391 138.425 56.3035 139.164 53.9079C139.923 51.5123 140.921 49.4358 142.219 47.6988C143.497 45.9618 145.014 44.4841 146.751 43.2667C148.488 42.0288 150.345 41.1305 152.342 40.5316C154.319 39.9523 156.375 39.6528 158.472 39.6528C160.389 39.6528 162.265 39.9327 164.122 40.4513C165.979 40.97 167.656 41.6893 169.174 42.5876C170.711 43.486 172.049 44.4048 173.247 45.3629C174.444 46.3209 175.523 47.3396 176.501 48.4376L193.173 34.162C188.601 28.6711 183.23 24.5581 177.04 21.8229C170.871 19.0878 164.682 17.7305 158.473 17.7305C153.841 17.7305 149.469 18.2491 145.356 19.3079C141.243 20.3658 137.569 21.8435 134.354 23.7605C131.14 25.657 128.245 27.9528 125.669 30.6283C123.094 33.3037 120.958 36.2581 119.28 39.5129C117.603 42.7676 116.325 46.2612 115.427 50.0151C114.528 53.7484 114.089 57.6618 114.089 61.7151C114.089 66.3468 114.628 70.7191 115.726 74.792C116.804 78.8649 118.342 82.4788 120.319 85.6328C122.275 88.7878 124.631 91.6227 127.386 94.1182C130.142 96.6136 133.156 98.6705 136.451 100.287C139.745 101.905 143.259 103.143 146.953 104.001C150.667 104.859 154.5 105.299 158.473 105.299" fill="#0F2053"/>
<path d="M223.458 58.3776V38.9516H229.427C233.36 38.9516 236.395 39.89 238.512 41.7269C240.648 43.5833 241.706 45.8996 241.706 48.6748C241.706 51.7897 240.587 54.1853 238.332 55.8626C236.095 57.5399 233.101 58.3785 229.367 58.3785H223.457L223.458 58.3776ZM201.336 104.059H223.458V78.0844H233.041C239.63 78.0844 245.34 77.0265 250.131 74.9294C254.923 72.8333 258.676 69.5785 261.352 65.1866C264.047 60.7937 265.385 55.4633 265.385 49.1944C265.385 45.6402 265.005 42.3659 264.247 39.3313C263.488 36.3162 262.29 33.541 260.653 31.026C259.016 28.511 256.999 26.3542 254.563 24.5771C252.147 22.7804 249.233 21.3829 245.819 20.4239C242.425 19.4454 238.631 18.9463 234.458 18.9463H201.336V104.059Z" fill="#0F2053"/>
<path d="M295.814 58.3776V38.9516H301.784C305.717 38.9516 308.751 39.89 310.868 41.7269C313.004 43.5833 314.062 45.8996 314.062 48.6748C314.062 51.7897 312.944 54.1853 310.688 55.8626C308.452 57.5399 305.457 58.3785 301.723 58.3785H295.813L295.814 58.3776ZM273.692 104.059H295.814V78.0844H305.398C311.986 78.0844 317.697 77.0265 322.488 74.9294C327.28 72.8333 331.033 69.5785 333.708 65.1866C336.403 60.7937 337.741 55.4633 337.741 49.1944C337.741 45.6402 337.361 42.3659 336.603 39.3313C335.845 36.3162 334.647 33.541 333.01 31.026C331.372 28.511 329.356 26.3542 326.92 24.5771C324.504 22.7804 321.589 21.3829 318.175 20.4239C314.781 19.4454 310.987 18.9463 306.815 18.9463H273.692V104.059Z" fill="#0F2053"/>
<path d="M315.639 228.668H332.919V224.046H320.755V217.718H329.356V213.36H320.755V208.282H332.464V203.659H315.64V228.668H315.639ZM301.792 203.205L291.22 216.733L280.648 203.205H278.98V228.668H284.096V215.33L290.386 223.212H292.054L298.344 215.33V228.668H303.46V203.205H301.792ZM265.133 203.205L254.56 216.733L243.988 203.205H242.321V228.668H247.436V215.33L253.727 223.212H255.394L261.685 215.33V228.668H266.8V203.205H265.133ZM223.813 221.203H217.144L220.478 212.753L223.813 221.203ZM226.996 228.668H232.49L221.35 203.205H219.645L208.466 228.668H213.96L215.362 225.41H225.593L226.995 228.668H226.996ZM185.298 208.168H189.58C191.891 208.168 193.368 209.608 193.368 211.73C193.368 213.852 191.967 215.33 189.58 215.33H185.298V208.168ZM201.288 228.668L194.202 218.854C196.931 217.49 198.598 214.913 198.598 211.73C198.598 206.917 194.809 203.658 189.58 203.658H180.182V228.668H185.298V219.838H189.049L195.529 228.668H201.289L201.288 228.668ZM144.016 216.164C143.902 223.325 150.04 229.275 157.392 229.123C160.006 229.123 162.355 228.516 164.44 227.266C166.562 226.016 168.191 224.349 169.328 222.34V214.951H157.316V219.385H164.213V221.431C162.811 223.363 160.5 224.538 157.62 224.538C152.656 224.538 149.283 221.014 149.283 216.164C149.283 211.314 152.542 207.941 157.316 207.941C160.196 207.941 162.508 209.153 164.289 211.616L167.926 208.623C165.501 205.175 161.788 203.204 157.392 203.204C150.003 203.09 143.863 208.964 144.016 216.163V216.164ZM129.448 216.164C129.448 220.976 126 224.387 121.415 224.387C116.83 224.387 113.382 220.976 113.382 216.164C113.382 211.351 116.792 207.941 121.415 207.941C126.037 207.941 129.448 211.427 129.448 216.164ZM108.114 216.164C108 223.325 114.177 229.275 121.376 229.123C128.576 229.274 134.828 223.325 134.715 216.164C134.828 209.002 128.577 203.053 121.376 203.205C114.177 203.053 108 209.002 108.114 216.164ZM84.5665 208.168H88.8483C91.1601 208.168 92.6373 209.608 92.6373 211.73C92.6373 213.852 91.2353 215.33 88.8483 215.33H84.5665V208.168ZM100.557 228.668L93.4711 218.854C96.1997 217.49 97.8666 214.913 97.8666 211.73C97.8666 206.917 94.0776 203.658 88.8483 203.658H79.4508V228.668H84.5665V219.838H88.3178L94.7978 228.668H100.558L100.557 228.668ZM55.6378 215.368V208.169H59.9196C62.2314 208.169 63.7085 209.609 63.7085 211.731C63.7085 213.853 62.3066 215.368 59.9196 215.368H55.6378ZM50.5221 228.668H55.6378V219.839H59.9196C65.1489 219.839 68.9378 216.505 68.9378 211.73C68.9378 206.955 65.1489 203.658 59.9196 203.658H50.5221V228.668V228.668ZM339.68 169.548V184.478L325.167 169.094H323.499V194.558H328.615V179.552L343.089 195.013H344.795V169.549H339.679L339.68 169.548ZM307.492 182.053C307.492 186.865 304.044 190.276 299.459 190.276C294.874 190.276 291.425 186.865 291.425 182.053C291.425 177.241 294.836 173.83 299.459 173.83C304.081 173.83 307.492 177.317 307.492 182.053ZM286.159 182.053C286.045 189.215 292.222 195.164 299.421 195.012C306.62 195.163 312.873 189.215 312.76 182.053C312.873 174.891 306.621 168.942 299.421 169.094C292.222 168.942 286.045 174.891 286.159 182.053ZM270.34 194.558H275.456V169.548H270.34V194.558ZM247.399 194.558H252.514V174.171H260.547V169.548H239.403V174.171H247.399V194.558ZM226.087 187.093H219.418L222.753 178.642L226.087 187.093ZM229.269 194.558H234.763L223.623 169.094H221.918L210.739 194.558H216.233L217.635 191.299H227.867L229.269 194.558H229.269ZM187.571 174.057H191.853C194.165 174.057 195.642 175.497 195.642 177.619C195.642 179.741 194.24 181.219 191.853 181.219H187.571V174.057ZM203.561 194.558L196.476 184.743C199.204 183.379 200.871 180.802 200.871 177.619C200.871 172.807 197.082 169.547 191.853 169.547H182.455V194.557H187.571V185.727H191.322L197.802 194.557H203.562L203.561 194.558ZM163.947 187.093H157.278L160.612 178.642L163.947 187.093ZM167.13 194.558H172.624L161.484 169.094H159.779L148.6 194.558H154.094L155.496 191.299H165.727L167.129 194.558H167.13ZM130.206 181.258V174.058H134.488C136.799 174.058 138.277 175.498 138.277 177.62C138.277 179.742 136.875 181.258 134.488 181.258H130.206ZM125.09 194.558H130.206V185.728H134.488C139.717 185.728 143.506 182.394 143.506 177.619C143.506 172.844 139.717 169.547 134.488 169.547H125.09V194.557V194.558ZM96.9575 194.558H114.237V189.935H102.073V183.607H110.675V179.249H102.073V174.171H113.782V169.548H96.9583V194.558H96.9575ZM71.4008 174.057H75.6827C77.9945 174.057 79.4716 175.497 79.4716 177.619C79.4716 179.741 78.0697 181.219 75.6827 181.219H71.4008V174.057ZM87.392 194.558L80.3062 184.743C83.0349 183.379 84.7017 180.802 84.7017 177.619C84.7017 172.807 80.9128 169.547 75.6835 169.547H66.286V194.557H71.4016V185.727H75.153L81.633 194.557H87.3928L87.392 194.558ZM42.4721 181.258V174.058H46.754C49.0657 174.058 50.5429 175.498 50.5429 177.62C50.5429 179.742 49.1409 181.258 46.754 181.258H42.4721ZM37.3564 194.558H42.4721V185.728H46.754C51.9832 185.728 55.7722 182.394 55.7722 177.619C55.7722 172.844 51.9832 169.547 46.754 169.547H37.3564V194.557V194.558ZM312.343 155.37C314.275 158.742 317.762 160.902 322.005 160.902C327.007 160.902 330.758 157.985 330.758 153.399C330.758 150.027 328.788 147.943 324.582 146.086L321.739 144.836C319.617 143.888 318.822 143.282 318.822 141.956C318.822 140.402 320.148 139.53 321.929 139.53C323.824 139.53 325.415 140.478 326.704 142.41L330.19 139.72C328.636 136.84 325.757 134.984 321.93 134.984C317.193 134.984 313.631 137.788 313.631 142.069C313.631 145.404 315.867 147.564 319.694 149.269L322.384 150.481C324.771 151.58 325.567 152.11 325.567 153.588C325.567 155.294 324.242 156.355 322.006 156.355C319.277 156.355 317.497 154.953 315.867 152.717L312.343 155.37H312.343ZM281.102 150.102C281.102 156.733 285.574 160.901 291.712 160.901C297.85 160.901 302.322 156.733 302.322 150.102V135.437H297.206V150.481C297.206 154.119 295.008 156.165 291.712 156.165C288.416 156.165 286.218 154.119 286.218 150.481V135.437H281.102V150.102ZM257.516 147.147V139.947H261.798C264.11 139.947 265.587 141.387 265.587 143.509C265.587 145.631 264.185 147.147 261.798 147.147H257.516ZM252.401 160.447H257.516V151.617H261.798C267.027 151.617 270.816 148.283 270.816 143.508C270.816 138.733 267.027 135.437 261.798 135.437H252.401V160.446V160.447ZM238.553 134.983L227.981 148.511L217.409 134.983H215.741V160.447H220.857V147.108L227.147 154.99H228.815L235.105 147.108V160.447H240.221V134.983H238.553ZM197.233 152.982H190.565L193.899 144.532L197.233 152.982ZM200.417 160.447H205.911L194.77 134.983H193.065L181.886 160.447H187.381L188.783 157.188H199.014L200.416 160.447H200.417ZM149.51 147.942C149.358 155.104 155.497 161.053 162.81 160.901C167.622 160.901 171.714 158.59 173.875 154.687L170.01 151.958C168.229 154.762 165.842 156.164 162.848 156.164C158.187 156.164 154.777 152.754 154.777 147.979C154.777 143.204 158.188 139.719 162.848 139.719C165.842 139.719 168.229 141.12 170.01 143.924L173.875 141.196C171.639 137.292 167.585 134.981 162.848 134.981C155.573 134.83 149.396 140.779 149.51 147.941V147.942ZM112.207 160.447H129.486V155.824H117.323V149.496H125.924V145.138H117.323V140.06H129.032V135.437H112.208V160.447H112.207ZM86.6502 139.947H90.9321C93.2438 139.947 94.721 141.386 94.721 143.508C94.721 145.63 93.319 147.108 90.9321 147.108H86.6502V139.947ZM102.641 160.447L95.5556 150.632C98.2843 149.268 99.9511 146.691 99.9511 143.508C99.9511 138.696 96.1621 135.437 90.9328 135.437H81.5353V160.446H86.651V151.617H90.4023L96.8823 160.446H102.642L102.641 160.447ZM57.7215 147.147V139.947H62.0033C64.3151 139.947 65.7923 141.387 65.7923 143.509C65.7923 145.631 64.3903 147.147 62.0033 147.147H57.7215ZM52.6058 160.447H57.7215V151.617H62.0033C67.2326 151.617 71.0215 148.283 71.0215 143.508C71.0215 138.733 67.2326 135.437 62.0033 135.437H52.6058V160.446V160.447Z" fill="#FEFEFE"/>
</svg>
